<!-- Generated by IcoMoon.io -->
<svg version="1.1" xmlns="http://www.w3.org/2000/svg" width="1707" height="1024" viewBox="0 0 1707 1024">
<g id="icomoon-ignore">
</g>
<path d="M1657.723 28.433c9.636 0 17.623 7.083 17.623 15.81v948.214c0 8.588-7.987 15.718-17.623 15.718h-227.004c-9.735 0-17.623-7.13-17.623-15.718v-948.214c0-8.728 7.888-15.81 17.623-15.81h227.004zM672.724 28.433c171.24 0 350.266 7.174 438.535 88.054 86.866 79.598 96.236 238.052 96.591 391.932l0.010 484.038c0 8.588-7.888 15.718-17.623 15.718h-226.905c-9.735 0-17.671-7.13-17.671-15.718v-492.363c-0.253-85.951-5.642-174.279-54.071-218.74-41.684-38.246-119.467-47.020-200.342-48.848h-411.374c-9.685 0-17.573 7.128-17.573 15.719v744.232c0 8.588-7.988 15.718-17.673 15.718h-227.104c-9.685 0-17.523-7.13-17.523-15.718v-948.214c0-8.728 7.838-15.81 17.523-15.81h655.2zM723.548 406.054c9.636 0 17.473 7.083 17.473 15.722v570.682c0 8.588-7.837 15.718-17.473 15.718h-238.438c-9.783 0-17.671-7.13-17.671-15.718v-570.682c0-8.639 7.888-15.722 17.671-15.722h238.438z"></path>
</svg>
